<svg width="18" height="17" viewBox="0 0 18 17" fill="none" xmlns="http://www.w3.org/2000/svg">
<path d="M16.5 14.3243L15.6666 15.236C15.2245 15.7194 14.6251 15.9909 14.0001 15.9909C13.3751 15.9909 12.7757 15.7194 12.3337 15.236C11.891 14.7535 11.2916 14.4826 10.6668 14.4826C10.042 14.4826 9.44261 14.7535 8.99998 15.236M1.5 15.9909H2.89545C3.3031 15.9909 3.50693 15.9909 3.69874 15.9449C3.8688 15.904 4.03138 15.8367 4.1805 15.7453C4.34869 15.6422 4.49282 15.4981 4.78107 15.2099L15.25 4.74091C15.9404 4.05056 15.9404 2.93127 15.25 2.24091C14.5597 1.55056 13.4404 1.55056 12.75 2.24091L2.28105 12.7099C1.9928 12.9981 1.84867 13.1422 1.7456 13.3104C1.65422 13.4596 1.58688 13.6221 1.54605 13.7922C1.5 13.984 1.5 14.1878 1.5 14.5955V15.9909Z" stroke="#344054" stroke-width="1.66667" stroke-linecap="round" stroke-linejoin="round"/>
</svg>
