<svg width="24" height="24" viewBox="0 0 24 24" fill="none" xmlns="http://www.w3.org/2000/svg">
<path fill-rule="evenodd" clip-rule="evenodd" d="M12.9995 3C12.9995 2.44772 12.5518 2 11.9995 2C11.4472 2 10.9995 2.44772 10.9995 3V3.57088C7.6072 4.0561 4.99948 6.97352 4.99948 10.5V15.5L4.28188 16.7558C3.71046 17.7558 4.43251 19 5.58425 19H8.12553C8.56957 20.7252 10.1357 22 11.9995 22C13.8634 22 15.4295 20.7252 15.8735 19H18.4147C19.5664 19 20.2885 17.7558 19.7171 16.7558L18.9995 15.5V10.5C18.9995 6.97354 16.3918 4.05614 12.9995 3.57089V3ZM6.99948 16.0311L6.44584 17H17.5531L16.9995 16.0311V10.5C16.9995 7.73858 14.7609 5.5 11.9995 5.5C9.23805 5.5 6.99948 7.73858 6.99948 10.5V16.0311ZM11.9995 20C11.2592 20 10.6129 19.5978 10.2671 19H13.7319C13.3861 19.5978 12.7398 20 11.9995 20Z" fill="#F5F8F8"/>
</svg>
