<svg width="28" height="29" viewBox="0 0 28 29" fill="none" xmlns="http://www.w3.org/2000/svg">
<path d="M28 12.8608H19.4703L26.857 8.5955L25.3922 6.05684L18.0045 10.3222L22.2684 2.93484L19.7306 1.46951L15.4658 8.85497V0.326172H12.5342V8.85591L8.26938 1.46951L5.73062 2.93484L9.99454 10.3203L2.60873 6.05684L1.14295 8.5955L8.52969 12.8608H0V15.7924H8.52876L1.14295 20.0578L2.6078 22.5964L9.99547 18.3311L5.73062 25.7184L8.26844 27.1838L12.5342 19.7974V28.3262H15.4658V19.6144L19.809 27.1371L22.1891 25.7632L17.845 18.2387L25.3903 22.5955L26.8561 20.0568L19.4703 15.7915H27.9991V12.8608H28ZM14 18.3115C13.4767 18.3116 12.9585 18.2085 12.475 18.0082C11.9915 17.808 11.5522 17.5144 11.1821 17.1443C10.812 16.7742 10.5184 16.3348 10.3181 15.8511C10.1178 15.3675 10.0147 14.8492 10.0146 14.3257C10.0145 13.8022 10.1175 13.2839 10.3178 12.8002C10.518 12.3165 10.8114 11.8771 11.1814 11.5069C11.5514 11.1367 11.9907 10.843 12.4741 10.6426C12.9576 10.4422 13.4758 10.339 13.9991 10.339C15.0559 10.3388 16.0696 10.7587 16.817 11.5062C17.5644 12.2537 17.9843 13.2675 17.9845 14.3248C17.9846 15.382 17.5649 16.396 16.8176 17.1436C16.0704 17.8913 15.0569 18.3114 14 18.3115Z" fill="#625DF5"/>
</svg>
