<svg width="19" height="15" viewBox="0 0 19 15" fill="none" xmlns="http://www.w3.org/2000/svg">
<path d="M1.51677 8.09415C1.40328 7.91445 1.34654 7.8246 1.31477 7.68602C1.29091 7.58192 1.29091 7.41775 1.31477 7.31366C1.34654 7.17507 1.40328 7.08522 1.51677 6.90552C2.45461 5.42054 5.24617 1.6665 9.50034 1.6665C13.7545 1.6665 16.5461 5.42054 17.4839 6.90552C17.5974 7.08522 17.6541 7.17507 17.6859 7.31366C17.7098 7.41775 17.7098 7.58192 17.6859 7.68602C17.6541 7.8246 17.5974 7.91445 17.4839 8.09415C16.5461 9.57914 13.7545 13.3332 9.50034 13.3332C5.24617 13.3332 2.45461 9.57914 1.51677 8.09415Z" stroke="#475467" stroke-width="1.66667" stroke-linecap="round" stroke-linejoin="round"/>
<path d="M9.50034 9.99984C10.881 9.99984 12.0003 8.88055 12.0003 7.49984C12.0003 6.11913 10.881 4.99984 9.50034 4.99984C8.11962 4.99984 7.00034 6.11913 7.00034 7.49984C7.00034 8.88055 8.11962 9.99984 9.50034 9.99984Z" stroke="#475467" stroke-width="1.66667" stroke-linecap="round" stroke-linejoin="round"/>
</svg>
