<svg xmlns="http://www.w3.org/2000/svg" width="20" height="20" viewBox="0 0 20 20" fill="none">
<g clip-path="url(#clip0_1570_60322)">
<path d="M9.16667 3.3332H5.66667C4.26654 3.3332 3.56647 3.3332 3.0317 3.60568C2.56129 3.84536 2.17884 4.22782 1.93916 4.69822C1.66667 5.233 1.66667 5.93307 1.66667 7.3332V14.3332C1.66667 15.7333 1.66667 16.4334 1.93916 16.9682C2.17884 17.4386 2.56129 17.821 3.0317 18.0607C3.56647 18.3332 4.26654 18.3332 5.66667 18.3332H12.6667C14.0668 18.3332 14.7669 18.3332 15.3016 18.0607C15.7721 17.821 16.1545 17.4386 16.3942 16.9682C16.6667 16.4334 16.6667 15.7333 16.6667 14.3332V10.8332M6.66665 13.3332H8.0621C8.46975 13.3332 8.67358 13.3332 8.86539 13.2871C9.03545 13.2463 9.19803 13.179 9.34715 13.0876C9.51534 12.9845 9.65947 12.8404 9.94772 12.5521L17.9167 4.5832C18.607 3.89284 18.607 2.77355 17.9167 2.0832C17.2263 1.39284 16.107 1.39284 15.4167 2.0832L7.4477 10.0521C7.15945 10.3404 7.01532 10.4845 6.91225 10.6527C6.82087 10.8018 6.75353 10.9644 6.7127 11.1345C6.66665 11.3263 6.66665 11.5301 6.66665 11.9378V13.3332Z" stroke="#475467" stroke-width="1.66667" stroke-linecap="round" stroke-linejoin="round"/>
</g>
<defs>
<clipPath id="clip0_1570_60322">
<rect width="20" height="20" fill="white"/>
</clipPath>
</defs>
</svg>