<svg xmlns="http://www.w3.org/2000/svg" width="20" height="21" viewBox="0 0 20 21" fill="none">
<path d="M2.3954 15.5963C2.43368 15.2517 2.45283 15.0794 2.50496 14.9184C2.55121 14.7755 2.61656 14.6396 2.69923 14.5142C2.79241 14.3729 2.91499 14.2503 3.16014 14.0052L14.1654 2.99992C15.0859 2.07945 16.5782 2.07945 17.4987 2.99993C18.4192 3.9204 18.4192 5.41279 17.4987 6.33326L6.49347 17.3385C6.24832 17.5836 6.12574 17.7062 5.98444 17.7994C5.85907 17.8821 5.72311 17.9474 5.58024 17.9937C5.4192 18.0458 5.24691 18.0649 4.90234 18.1032L2.08203 18.4166L2.3954 15.5963Z" stroke="white" stroke-width="1.66667" stroke-linecap="round" stroke-linejoin="round"/>
</svg>