<svg width="37" height="37" viewBox="0 0 37 37" fill="none" xmlns="http://www.w3.org/2000/svg">
<rect x="2.5" y="2.5" width="32" height="32" rx="16" fill="#CFDADC"/>
<rect x="2.5" y="2.5" width="32" height="32" rx="16" stroke="#E7EDEE" stroke-width="4"/>
<path d="M19.8327 12.0131V14.7668C19.8327 15.1402 19.8327 15.3269 19.9053 15.4695C19.9693 15.5949 20.0712 15.6969 20.1967 15.7608C20.3393 15.8335 20.526 15.8335 20.8993 15.8335H23.653M23.8327 17.159V21.9668C23.8327 23.0869 23.8327 23.647 23.6147 24.0748C23.4229 24.4511 23.117 24.7571 22.7407 24.9488C22.3128 25.1668 21.7528 25.1668 20.6327 25.1668H16.366C15.2459 25.1668 14.6859 25.1668 14.258 24.9488C13.8817 24.7571 13.5757 24.4511 13.384 24.0748C13.166 23.647 13.166 23.0869 13.166 21.9668V15.0335C13.166 13.9134 13.166 13.3533 13.384 12.9255C13.5757 12.5492 13.8817 12.2432 14.258 12.0515C14.6859 11.8335 15.2459 11.8335 16.366 11.8335H18.5072C18.9964 11.8335 19.241 11.8335 19.4711 11.8888C19.6752 11.9377 19.8703 12.0186 20.0493 12.1282C20.2511 12.2519 20.424 12.4249 20.7699 12.7708L22.8954 14.8962C23.2413 15.2421 23.4143 15.4151 23.538 15.6169C23.6476 15.7959 23.7284 15.991 23.7774 16.195C23.8327 16.4252 23.8327 16.6698 23.8327 17.159Z" stroke="#144E5A" stroke-width="1.33333" stroke-linecap="round" stroke-linejoin="round"/>
</svg>
