<svg width="37" height="36" viewBox="0 0 37 36" fill="none" xmlns="http://www.w3.org/2000/svg">
<rect x="2.5" y="2" width="32" height="32" rx="16" fill="#E7EDEE"/>
<rect x="2.5" y="2" width="32" height="32" rx="16" stroke="#F5F8F8" stroke-width="4"/>
<path d="M19.8334 11.5126V14.2663C19.8334 14.6397 19.8334 14.8264 19.9061 14.969C19.97 15.0944 20.072 15.1964 20.1974 15.2603C20.34 15.333 20.5267 15.333 20.9001 15.333H23.6538M23.8334 16.6585V21.4663C23.8334 22.5864 23.8334 23.1465 23.6154 23.5743C23.4237 23.9506 23.1177 24.2566 22.7414 24.4484C22.3136 24.6663 21.7535 24.6663 20.6334 24.6663H16.3667C15.2466 24.6663 14.6866 24.6663 14.2588 24.4484C13.8824 24.2566 13.5765 23.9506 13.3847 23.5743C13.1667 23.1465 13.1667 22.5864 13.1667 21.4663V14.533C13.1667 13.4129 13.1667 12.8529 13.3847 12.425C13.5765 12.0487 13.8824 11.7427 14.2588 11.551C14.6866 11.333 15.2466 11.333 16.3667 11.333H18.5079C18.9971 11.333 19.2417 11.333 19.4719 11.3883C19.676 11.4373 19.871 11.5181 20.05 11.6277C20.2518 11.7514 20.4248 11.9244 20.7707 12.2703L22.8962 14.3957C23.2421 14.7417 23.415 14.9146 23.5387 15.1164C23.6484 15.2954 23.7292 15.4905 23.7782 15.6945C23.8334 15.9247 23.8334 16.1693 23.8334 16.6585Z" stroke="#144E5A" stroke-width="1.33333" stroke-linecap="round" stroke-linejoin="round"/>
</svg>
