<svg xmlns="http://www.w3.org/2000/svg" width="40" height="40" viewBox="0 0 40 40" fill="none">
<path d="M20.8594 13.75V5.3125H9.0625V34.6875H30.9375V15.3906H22.5C22.0649 15.3906 21.6476 15.2178 21.3399 14.9101C21.0322 14.6024 20.8594 14.1851 20.8594 13.75ZM20 26.3281C20 26.5 19.8594 26.6406 19.6875 26.6406H12.5C12.3281 26.6406 12.1875 26.5 12.1875 26.3281V24.4531C12.1875 24.2812 12.3281 24.1406 12.5 24.1406H19.6875C19.8594 24.1406 20 24.2812 20 24.4531V26.3281ZM27.8125 19.1406V21.0156C27.8125 21.1875 27.6719 21.3281 27.5 21.3281H12.5C12.3281 21.3281 12.1875 21.1875 12.1875 21.0156V19.1406C12.1875 18.9688 12.3281 18.8281 12.5 18.8281H27.5C27.6719 18.8281 27.8125 18.9688 27.8125 19.1406Z" fill="#E7EDEE"/>
<path d="M33.3828 11.2734L24.9766 2.86719C24.7422 2.63281 24.4258 2.5 24.0938 2.5H7.5C6.80859 2.5 6.25 3.05859 6.25 3.75V36.25C6.25 36.9414 6.80859 37.5 7.5 37.5H32.5C33.1914 37.5 33.75 36.9414 33.75 36.25V12.1602C33.75 11.8281 33.6172 11.5078 33.3828 11.2734ZM23.5156 5.38281L30.8672 12.7344H23.5156V5.38281ZM30.9375 34.6875H9.0625V5.3125H20.8594V13.75C20.8594 14.1851 21.0322 14.6024 21.3399 14.9101C21.6476 15.2178 22.0649 15.3906 22.5 15.3906H30.9375V34.6875Z" fill="#144E5A"/>
<path d="M12.1875 19.1406V21.0156C12.1875 21.1875 12.3281 21.3281 12.5 21.3281H27.5C27.6719 21.3281 27.8125 21.1875 27.8125 21.0156V19.1406C27.8125 18.9688 27.6719 18.8281 27.5 18.8281H12.5C12.3281 18.8281 12.1875 18.9688 12.1875 19.1406ZM19.6875 24.1406H12.5C12.3281 24.1406 12.1875 24.2813 12.1875 24.4531V26.3281C12.1875 26.5 12.3281 26.6406 12.5 26.6406H19.6875C19.8594 26.6406 20 26.5 20 26.3281V24.4531C20 24.2813 19.8594 24.1406 19.6875 24.1406Z" fill="#144E5A"/>
</svg>