<svg xmlns="http://www.w3.org/2000/svg" width="16" height="16" viewBox="0 0 16 16" fill="none">
<g clip-path="url(#clip0_486_4594)">
<path d="M4.00004 13.3915H5.74023C5.96713 13.3915 6.19263 13.4185 6.41258 13.4725L8.2513 13.9193C8.65027 14.0165 9.06589 14.026 9.46902 13.9477L11.502 13.5522C12.0391 13.4476 12.5331 13.1904 12.9203 12.8138L14.3586 11.4146C14.7694 11.0157 14.7694 10.3684 14.3586 9.9688C13.9888 9.60905 13.4032 9.56855 12.9848 9.87363L11.3084 11.0967C11.0684 11.2722 10.7762 11.3666 10.4758 11.3666H8.85704L9.88742 11.3666C10.4682 11.3666 10.9386 10.909 10.9386 10.344V10.1395C10.9386 9.67043 10.6104 9.2614 10.1428 9.14801L8.55244 8.76125C8.29363 8.69848 8.02858 8.66676 7.76213 8.66676C7.11893 8.66676 5.95464 9.1993 5.95464 9.1993L4.00004 10.0167M1.33337 9.73343L1.33337 13.6001C1.33337 13.9735 1.33337 14.1601 1.40604 14.3028C1.46995 14.4282 1.57194 14.5302 1.69738 14.5941C1.83999 14.6668 2.02667 14.6668 2.40004 14.6668H2.93337C3.30674 14.6668 3.49343 14.6668 3.63603 14.5941C3.76148 14.5302 3.86346 14.4282 3.92738 14.3028C4.00004 14.1601 4.00004 13.9735 4.00004 13.6001V9.73343C4.00004 9.36006 4.00004 9.17337 3.92738 9.03077C3.86346 8.90533 3.76148 8.80334 3.63603 8.73942C3.49343 8.66676 3.30674 8.66676 2.93337 8.66676H2.40004C2.02667 8.66676 1.83999 8.66676 1.69738 8.73942C1.57194 8.80334 1.46995 8.90532 1.40604 9.03077C1.33337 9.17337 1.33337 9.36006 1.33337 9.73343ZM11.461 2.39493C11.0631 1.56236 10.1458 1.12128 9.25366 1.54701C8.36157 1.97273 7.9815 2.98235 8.35501 3.86864C8.58585 4.4164 9.2472 5.48009 9.71877 6.21278C9.893 6.4835 9.98012 6.61886 10.1074 6.69805C10.2165 6.76597 10.3531 6.80258 10.4816 6.79833C10.6314 6.79338 10.7746 6.71971 11.0608 6.57238C11.8355 6.17364 12.9401 5.58313 13.4139 5.22418C14.1805 4.64337 14.3704 3.57581 13.7965 2.76425C13.2225 1.9527 12.2218 1.87284 11.461 2.39493Z" stroke="#144E5A" stroke-width="1.5" stroke-linecap="round" stroke-linejoin="round"/>
</g>
<defs>
<clipPath id="clip0_486_4594">
<rect width="16" height="16" fill="white"/>
</clipPath>
</defs>
</svg>