<svg xmlns="http://www.w3.org/2000/svg" width="50" height="50" viewBox="0 0 50 50" fill="none">
<path d="M25 3.125C12.9346 3.125 3.125 12.9346 3.125 25C3.125 37.0654 12.9346 46.875 25 46.875C37.0654 46.875 46.875 37.0654 46.875 25C46.875 12.9346 37.0654 3.125 25 3.125Z" fill="#FDDD4C"/>
<path d="M15.4201 30.7034C14.9417 29.9792 16.1448 28.8832 15.6555 27.963C15.3734 27.4323 14.9123 27.1016 14.3586 27.0321C13.8272 26.9655 13.2798 27.16 12.9308 27.5402C12.3799 28.1397 12.2943 28.9558 12.4008 29.2445C12.4398 29.3504 12.5011 29.3793 12.545 29.3854C12.845 29.4249 13.0139 28.6548 13.1175 28.4944C13.4039 28.0523 14.0543 27.9186 14.5035 28.2091C15.3552 28.76 14.6167 29.6503 14.6804 30.4023C14.7424 31.1344 15.1986 31.4287 15.6081 31.4596C16.0065 31.4748 16.2851 31.2534 16.3554 31.0918C16.5241 30.7061 15.8136 31.2992 15.4201 30.7034Z" fill="black"/>
<path d="M33.2152 24.056C32.9918 24.0251 32.7476 24.0258 32.4936 24.056C32.3007 23.8126 32.1279 23.4186 32.0304 22.9588C31.857 22.1406 31.8751 21.548 32.3592 21.471C32.8432 21.394 33.0773 21.889 33.2507 22.7071C33.367 23.2571 33.3447 23.7624 33.2152 24.056Z" fill="black"/>
<path d="M27.9135 24.5427C27.9326 24.728 27.9394 24.9155 27.9339 25.0881C28.4023 25.1156 28.7341 25.338 28.8224 25.4792C28.8677 25.552 28.8495 25.5995 28.8349 25.6215C28.7865 25.6969 28.6826 25.6852 28.4649 25.6608C28.2748 25.6395 28.07 25.6207 27.8572 25.6305C27.7414 25.9856 27.3981 26.0188 27.1569 25.7562C26.9884 25.8076 26.6574 26.0189 26.5588 25.7892C26.558 25.6753 26.6771 25.5096 26.893 25.3633C26.7456 25.0823 26.6469 24.7813 26.5886 24.4698C26.2826 24.5249 26.0073 24.6106 25.7916 24.6778C25.6902 24.7094 25.2895 24.8904 25.2425 24.6864C25.2111 24.5454 25.4305 24.3131 25.6625 24.1453C25.9216 23.9613 26.2091 23.8306 26.5072 23.7551C26.5008 23.3113 26.614 23.0018 26.9364 22.9505C27.3361 22.8869 27.5839 23.1947 27.7553 23.7646C28.2384 23.8988 28.7209 24.2316 28.9338 24.5757C29.0167 24.7091 29.0327 24.8122 28.9791 24.8665C28.8452 25.0053 28.1035 24.603 27.9135 24.5427Z" fill="black"/>
<path d="M31.0902 26.5372C31.3966 26.6857 31.7337 26.6272 31.8438 26.4065C31.9538 26.1859 31.7943 25.8868 31.4879 25.7383C31.1814 25.5898 30.8443 25.6482 30.7343 25.8689C30.6242 26.0896 30.7837 26.3887 31.0902 26.5372Z" fill="black"/>
<path d="M32.5987 25.4413C32.6043 25.1037 32.8111 24.8342 33.0598 24.8384C33.3084 24.8432 33.5055 25.1195 33.4999 25.4564C33.4944 25.7933 33.2875 26.0628 33.0389 26.0587C32.7902 26.0545 32.5931 25.7782 32.5987 25.4413Z" fill="black"/>
<path fill-rule="evenodd" clip-rule="evenodd" d="M39.3414 29.5752C39.3394 29.5682 39.3463 29.5924 39.3414 29.5752C39.8408 29.5752 40.625 30.1417 40.625 31.5105C40.625 32.8725 40.0525 34.4152 39.9174 34.7576C37.8551 39.6361 32.9331 42.3517 27.0701 42.1798C21.6041 42.0196 16.9425 39.1727 14.9025 34.5314C13.6691 34.5328 12.3973 33.9972 11.4306 33.1516C10.4116 32.2606 9.78339 31.1077 9.66081 29.9052C9.56539 28.9689 9.6817 28.0978 9.9791 27.3381L8.83339 26.3797C3.59027 22.01 19.9889 4.0182 25.2334 8.53368C25.2599 8.55637 27.0178 10.2586 27.022 10.2627C29.5508 9.2029 36.3263 7.185 36.334 11.8825C36.3368 13.4424 35.3296 15.2615 33.7159 16.9122C35.5809 18.6194 35.0891 21.0445 35.3861 23.2695L36.0338 23.4469C37.2687 23.7886 38.1469 24.2444 38.5766 24.6899C39.0064 25.1347 39.2195 25.5657 39.2968 26.0711C39.3692 26.4787 39.3595 27.1986 38.8148 28.0036C39.011 28.5229 39.19 29.0407 39.3414 29.5752ZM14.8099 33.2657C14.9931 33.2698 15.1749 33.2582 15.3532 33.2279C17.2692 32.9055 17.7706 30.8512 17.4551 28.8341C17.0985 26.5564 15.5377 25.7534 14.4784 25.6964C14.1838 25.6812 13.91 25.7074 13.6844 25.7521C11.7934 26.1281 10.7257 27.7162 10.9361 29.7787C11.1262 31.6453 13.0387 33.219 14.8099 33.2657ZM10.5272 26.3117C11.1617 25.4021 12.1988 24.7442 13.3758 24.518C14.874 20.5484 17.3757 16.8909 20.6868 14.374C23.144 12.3507 25.7941 10.8994 25.7941 10.8994C25.7941 10.8994 24.367 9.26587 23.9359 9.14556C21.2844 8.43881 15.5579 12.3369 11.9014 17.4877C10.4221 19.5715 8.30406 23.2619 9.31675 25.1601C9.44142 25.3952 10.1483 25.9996 10.5272 26.3117ZM32.0241 32.3541C32.0283 32.3967 32.0019 32.4407 31.9636 32.4565C31.9636 32.4565 29.833 33.4348 26.4488 32.4015C26.5705 33.416 27.8007 33.8004 28.6601 33.9395C32.8537 34.6517 36.7742 32.2847 37.6566 31.6886C37.8081 31.5863 37.6547 31.8494 37.6273 31.888C36.5471 33.2637 33.6428 34.8566 29.8644 34.8559C28.2165 34.8552 26.5693 34.2825 25.9648 33.4018C25.0266 32.0358 25.9181 30.0414 27.4817 30.249C30.1247 30.5436 32.8342 30.3222 35.2809 29.2012C37.4142 28.2236 38.2201 27.1484 38.0989 26.2773C37.9109 24.9273 35.9095 24.7163 34.8978 24.3881C34.4577 24.2444 34.2404 24.1296 34.1909 23.3121C34.1693 22.9553 34.1066 21.7103 34.0836 21.1953C34.0432 20.294 33.9332 19.0613 33.1587 18.5526C32.9567 18.4199 32.7325 18.356 32.4964 18.3436C32.3081 18.3346 32.1965 18.3605 32.1365 18.3744C32.123 18.3775 32.1121 18.38 32.1035 18.3814C31.6854 18.4516 31.4291 18.6632 31.1269 18.9127C31.1095 18.927 31.0919 18.9415 31.0741 18.9561C30.1081 19.7509 29.2925 19.8808 28.385 19.8423C28.1024 19.8305 27.8111 19.8023 27.5038 19.7725C27.2212 19.7451 26.925 19.7164 26.6097 19.698L26.2245 19.676C24.7048 19.599 23.0751 20.8942 22.8041 22.7339C22.5014 24.7875 23.6492 26.0453 24.3957 26.8633C24.5801 27.0654 24.7401 27.2407 24.8476 27.3945C24.9165 27.4873 24.9966 27.6179 24.9966 27.7424C24.9966 27.8909 24.8991 28.0084 24.8037 28.1088C23.2534 29.6825 22.7575 32.1829 23.3418 34.2667C23.4149 34.5266 23.5076 34.7755 23.6169 35.0133C24.9876 38.1751 29.2403 39.6478 33.3941 38.3085C36.3053 37.3698 38.8775 35.1016 39.4013 31.9725C39.526 31.1572 39.3428 30.8423 39.0934 30.6904C38.8295 30.5302 38.5133 30.5858 38.5133 30.5858C38.5133 30.5858 38.3691 29.6117 37.961 28.7262C36.7498 29.6694 35.191 30.3322 34.0042 30.6684C32.1028 31.2068 30.0488 31.4164 28.0839 31.1625C27.2869 31.0596 26.7515 30.9904 26.5219 31.7264C29.1428 32.6738 31.9169 32.2682 31.9169 32.2682C31.9705 32.2627 32.0186 32.3012 32.0241 32.3541ZM24.4624 13.9697C23.0291 14.6937 21.4286 15.9827 20.1289 17.4657C20.083 17.5186 20.1512 17.5915 20.2076 17.5509C21.3304 16.7445 22.8696 15.9951 24.8859 15.5097C27.1446 14.9659 29.319 15.1942 30.6472 15.4946C30.7141 15.5097 30.7559 15.3963 30.6967 15.3633C29.8191 14.8772 28.4721 14.5472 27.5165 14.5403C27.4699 14.5397 27.4434 14.486 27.4712 14.4489C27.6363 14.2296 27.8627 14.013 28.0695 13.8563C28.1155 13.8205 28.0876 13.747 28.0291 13.7504C26.8404 13.8225 24.1254 15.0604 24.1351 15.0154C24.2047 14.6854 24.4241 14.2495 24.5377 14.046C24.5648 13.9979 24.5119 13.945 24.4624 13.9697Z" fill="black"/>
</svg>