<svg xmlns="http://www.w3.org/2000/svg" width="25" height="30" viewBox="0 0 26 31" fill="none">
<path d="M13.0012 0.5C13.8296 0.5 14.5012 1.17157 14.5012 2V3.6067C16.4488 3.8855 18.2814 4.70423 19.7253 5.98772C21.5413 7.60193 22.6012 9.83178 22.6012 12.2C22.6012 14.9178 23.213 16.8862 23.9587 18.287L23.9724 18.3128C24.5139 19.3301 24.9365 20.1241 25.2186 20.6923C25.3596 20.9763 25.4829 21.2382 25.5713 21.4609C25.6151 21.5712 25.6629 21.7031 25.699 21.8421C25.7255 21.944 25.7926 22.2151 25.7506 22.5391C25.7295 22.7017 25.6821 23.0598 25.4662 23.4193C25.2503 23.7788 24.9565 23.9889 24.8229 24.0839C24.5868 24.2517 24.3524 24.3234 24.236 24.3549C24.0984 24.3922 23.9648 24.4142 23.854 24.4288C23.6324 24.4578 23.3746 24.4727 23.106 24.4818C22.5706 24.5 21.8224 24.5 20.88 24.5H5.12238C4.17991 24.5 3.4317 24.5 2.89635 24.4818C2.62777 24.4727 2.36998 24.4578 2.14839 24.4288C2.03755 24.4142 1.90394 24.3922 1.76631 24.3549C1.64993 24.3234 1.41556 24.2517 1.17948 24.0839C1.04584 23.9889 0.752031 23.7788 0.536123 23.4193C0.320216 23.0598 0.272833 22.7017 0.251765 22.5391C0.209787 22.2151 0.276828 21.944 0.303306 21.8421C0.339412 21.7031 0.38726 21.5712 0.431073 21.4609C0.519462 21.2382 0.642698 20.9763 0.783719 20.6923C1.06588 20.124 1.48844 19.3301 2.03006 18.3126L2.04368 18.287C2.78932 16.8862 3.40117 14.9178 3.40117 12.2C3.40117 9.83178 4.46107 7.60193 6.27706 5.98772C7.72099 4.70423 9.55357 3.8855 11.5012 3.6067V2C11.5012 1.17157 12.1727 0.5 13.0012 0.5Z" fill="white"/>
<path d="M13.0008 30.5C10.7799 30.5 8.84089 29.2934 7.80347 27.5H18.1981C17.1607 29.2934 15.2216 30.5 13.0008 30.5Z" fill="white"/>
</svg>