<svg xmlns="http://www.w3.org/2000/svg" width="50" height="50" viewBox="0 0 50 50" fill="none">
<path d="M24.8633 23.9651C24.8291 23.9016 24.7949 23.8723 24.7559 23.8674C24.6143 24.0286 24.6484 25.4055 24.8877 26.3772C25.083 25.7131 25.1172 24.3997 24.8633 23.9651ZM24.7852 29.8489C24.4092 30.8254 23.8672 32.1584 23.2178 33.3352C23.4131 33.2571 23.6133 33.1741 23.8184 33.0911C24.6777 32.7395 25.6396 32.344 26.6943 32.1047C25.9668 31.5286 25.3076 30.7522 24.7852 29.8489Z" fill="#E7EDEE"/>
<path d="M26.0742 17.1875V6.64062H11.3281V43.3594H38.6719V19.2383H28.125C27.5811 19.2383 27.0595 19.0222 26.6749 18.6376C26.2903 18.253 26.0742 17.7314 26.0742 17.1875ZM28.7598 31.2305C29.5459 31.1377 30.2539 31.0937 30.9228 31.1182C31.5478 31.1377 32.0752 31.2158 32.4853 31.3672C32.4951 31.3721 32.5 31.3721 32.5098 31.377C32.5293 31.3867 32.5488 31.3916 32.5684 31.4014C32.5928 31.4111 32.6221 31.4209 32.6465 31.4355C32.6514 31.4404 32.6611 31.4404 32.666 31.4453C32.8662 31.5332 33.0322 31.6406 33.1592 31.7676C33.6035 32.2119 33.7354 33.042 33.4619 33.7012C33.3057 34.0771 32.8906 34.7021 31.8359 34.7021C30.7715 34.7021 29.2041 34.2285 27.8271 33.4912C26.582 33.7012 25.2051 34.1699 23.877 34.6191C23.5938 34.7168 23.3008 34.8145 23.0176 34.9072C21.1621 38.0908 19.7705 38.7842 18.9111 38.7842C18.7061 38.7842 18.5303 38.7402 18.3838 38.6865C18.0469 38.5596 17.7588 38.2959 17.5781 37.9541C17.5342 37.8711 17.5 37.7881 17.4707 37.7002C17.3926 37.4658 17.3682 37.2314 17.4072 37.0361L17.4365 36.9043C17.4414 36.8945 17.4414 36.8848 17.4463 36.875C17.4561 36.8408 17.4658 36.8066 17.4805 36.7725C17.4805 36.7676 17.4854 36.7627 17.4854 36.7578C17.6855 36.1768 18.1494 35.6152 18.8379 35.0684C19.4385 34.5898 20.1611 34.1553 21.0791 33.6816C21.8555 32.3145 22.915 30.0146 23.5791 28.4375C23.0518 26.3965 22.7637 24.7949 23.0859 23.623C23.1299 23.4619 23.208 23.3105 23.3105 23.1787C23.3203 23.1689 23.3252 23.1592 23.335 23.1494C23.3398 23.1445 23.3398 23.1396 23.3447 23.1396C23.6523 22.7734 24.1699 22.5586 24.7168 22.5781C25.5273 22.6123 26.167 23.1396 26.3281 24.0479C26.4111 24.4385 26.4355 24.8535 26.4209 25.3027V25.3369C26.4209 25.3613 26.4209 25.3857 26.416 25.4102C26.3818 26.0596 26.2695 26.709 26.0596 27.5928C26.04 27.6709 26.0205 27.749 26.001 27.8467L25.9521 28.0469L25.9473 28.0615C25.9521 28.0713 25.9521 28.0762 25.957 28.0859L26.0449 28.3057C26.0498 28.3203 26.0596 28.3398 26.0645 28.3545C26.0986 28.4326 26.1328 28.5156 26.167 28.5889V28.5937C26.5918 29.5117 27.1289 30.2246 27.8223 30.7959C28.0322 30.9668 28.2568 31.123 28.501 31.2744C28.5889 31.25 28.6719 31.2402 28.7598 31.2305Z" fill="#E7EDEE"/>
<path d="M19.1162 37.1583C19.3945 36.9434 19.9072 36.4503 20.5859 35.4639C20.083 35.9229 19.4434 36.5577 19.1162 37.1583ZM32.3437 33.1055L32.3535 33.0909H32.3632C32.3925 33.0714 32.3877 33.0567 32.3828 33.047C32.3779 33.0421 32.163 32.5929 30.1806 32.6856C31.9043 33.3643 32.3046 33.13 32.3437 33.1055Z" fill="#E7EDEE"/>
<path d="M41.7285 14.0918L31.2207 3.58398C30.9277 3.29102 30.5322 3.125 30.1172 3.125H9.375C8.51074 3.125 7.8125 3.82324 7.8125 4.6875V45.3125C7.8125 46.1768 8.51074 46.875 9.375 46.875H40.625C41.4893 46.875 42.1875 46.1768 42.1875 45.3125V15.2002C42.1875 14.7852 42.0215 14.3848 41.7285 14.0918ZM29.3945 6.72852L38.584 15.918H29.3945V6.72852ZM38.6719 43.3594H11.3281V6.64062H26.0742V17.1875C26.0742 17.7314 26.2903 18.253 26.6749 18.6376C27.0595 19.0222 27.5811 19.2383 28.125 19.2383H38.6719V43.3594Z" fill="#144E5A"/>
<path d="M26.1673 28.5794C26.1282 28.4964 26.094 28.4183 26.0598 28.3401C26.055 28.3255 26.0452 28.306 26.0403 28.2913L25.9524 28.0716C25.9475 28.0618 25.9475 28.0569 25.9426 28.0472L25.9475 28.0325L25.9573 27.9788C26.1526 27.1829 26.3772 26.2552 26.4163 25.3226V25.2884C26.4309 24.8685 26.4065 24.4485 26.3186 24.0384C26.1331 22.9983 25.3665 22.5931 24.7122 22.5638C24.1604 22.5393 23.6477 22.7591 23.3401 23.1204C23.3352 23.1253 23.3352 23.1302 23.3303 23.1302C23.3206 23.1399 23.3108 23.1497 23.3059 23.1595C23.2034 23.2913 23.1253 23.4427 23.0813 23.6038C22.7591 24.7757 23.0471 26.3772 23.5745 28.4183C22.9104 30.0003 21.8509 32.2952 21.0745 33.6624V33.6673C19.722 34.3655 17.9446 35.4154 17.4808 36.7386C17.4808 36.7435 17.4759 36.7484 17.4759 36.7533C17.4661 36.7874 17.4515 36.8216 17.4417 36.8558C17.4368 36.8656 17.4368 36.8753 17.4319 36.8851C17.4222 36.929 17.4075 36.973 17.4026 37.0169C17.3587 37.2122 17.3831 37.4466 17.4661 37.681C17.4954 37.7689 17.5296 37.8519 17.5735 37.9349C17.7542 38.2767 18.0423 38.5404 18.3792 38.6673C18.5257 38.721 18.7015 38.765 18.9065 38.765C19.7659 38.765 21.1575 38.0716 23.013 34.888C23.2962 34.7952 23.5891 34.6976 23.8723 34.5999C25.2005 34.1507 26.5774 33.682 27.8225 33.472C29.1995 34.2093 30.7669 34.6829 31.8313 34.6829C32.886 34.6829 33.301 34.0579 33.4573 33.682C33.7307 33.0228 33.5989 32.1927 33.1545 31.7484C33.0276 31.6214 32.8616 31.514 32.6614 31.4261C32.6565 31.4212 32.6467 31.4212 32.6418 31.4163C32.6174 31.4066 32.5881 31.3968 32.5637 31.3821C32.5442 31.3724 32.5247 31.3675 32.5051 31.3577C32.4954 31.3528 32.4905 31.3528 32.4807 31.348C31.6897 31.0648 30.4446 31.0208 28.7551 31.2112L28.4964 31.2405C28.2522 31.0941 28.0276 30.9329 27.8176 30.762C27.1243 30.2103 26.5921 29.5023 26.1673 28.5794ZM19.1165 37.1585C19.4436 36.5579 20.0833 35.9232 20.5862 35.4642C19.9075 36.4505 19.3948 36.9437 19.1165 37.1585ZM24.7561 23.8675C24.7952 23.8724 24.8294 23.9017 24.8636 23.9651C25.1175 24.3997 25.0833 25.7132 24.888 26.3772C24.6487 25.4056 24.6145 24.0286 24.7561 23.8675ZM23.8186 33.0911C23.6136 33.1741 23.4134 33.2571 23.218 33.3353C23.8675 32.1585 24.4095 30.8255 24.7854 29.8489C25.3079 30.7523 25.9671 31.5286 26.6946 32.1048C25.6399 32.3441 24.678 32.7396 23.8186 33.0911ZM32.3831 33.0472C32.3879 33.057 32.3928 33.0716 32.3635 33.0911H32.3538L32.344 33.1058C32.3049 33.1302 31.9045 33.3646 30.1809 32.6859C32.1633 32.5931 32.3782 33.0423 32.3831 33.0472Z" fill="#144E5A"/>
</svg>