<svg xmlns="http://www.w3.org/2000/svg" width="15" height="14" viewBox="0 0 15 14" fill="none">
<path d="M7.96838 1.37598H7.03088C6.94755 1.37598 6.90588 1.41764 6.90588 1.50098V6.40723H2.25C2.16667 6.40723 2.125 6.44889 2.125 6.53223V7.46973C2.125 7.55306 2.16667 7.59473 2.25 7.59473H6.90588V12.501C6.90588 12.5843 6.94755 12.626 7.03088 12.626H7.96838C8.05172 12.626 8.09338 12.5843 8.09338 12.501V7.59473H12.75C12.8333 7.59473 12.875 7.55306 12.875 7.46973V6.53223C12.875 6.44889 12.8333 6.40723 12.75 6.40723H8.09338V1.50098C8.09338 1.41764 8.05172 1.37598 7.96838 1.37598Z" fill="#667085"/>
</svg>