<svg width="40" height="35" viewBox="0 0 40 35" fill="none" xmlns="http://www.w3.org/2000/svg">
<circle cx="21.75" cy="17.5" r="17.5" fill="url(#paint0_linear_4790_17707)"/>
<mask id="mask0_4790_17707" style="mask-type:alpha" maskUnits="userSpaceOnUse" x="4" y="0" width="36" height="35">
<circle cx="21.75" cy="17.5" r="17.5" fill="#C4C4C4"/>
</mask>
<g mask="url(#mask0_4790_17707)">
<rect x="23" y="-2.5" width="21.25" height="21.25" fill="url(#paint1_linear_4790_17707)"/>
<path d="M8 11.75C8 10.0931 9.34315 8.75 11 8.75H22.5C24.1569 8.75 25.5 10.0931 25.5 11.75V28.25C25.5 29.9069 24.1569 31.25 22.5 31.25H8V11.75Z" fill="black" fill-opacity="0.3"/>
<rect x="1.75" y="-2.5" width="21.25" height="21.25" fill="#EB6C4D"/>
</g>
<rect x="0.5" y="6.25" width="22.5" height="22.5" rx="2" fill="url(#paint2_linear_4790_17707)"/>
<path d="M16.75 15.5714C16.75 12.875 14.9749 11.25 12.1598 11.25H8V23.75H10.582V19.9464H12.0523C14.688 19.9464 16.75 18.4464 16.75 15.5714ZM14.1322 15.625C14.1322 16.8393 13.3612 17.625 12.106 17.625H10.582V13.5893H12.0881C13.3432 13.5893 14.1322 14.25 14.1322 15.625Z" fill="white"/>
<defs>
<linearGradient id="paint0_linear_4790_17707" x1="4.25" y1="19.9138" x2="39.25" y2="19.9138" gradientUnits="userSpaceOnUse">
<stop stop-color="#A73A24"/>
<stop offset="1" stop-color="#F75936"/>
</linearGradient>
<linearGradient id="paint1_linear_4790_17707" x1="39.875" y1="10" x2="23" y2="10" gradientUnits="userSpaceOnUse">
<stop stop-color="#FDB8A3"/>
<stop offset="1" stop-color="#F1876D"/>
</linearGradient>
<linearGradient id="paint2_linear_4790_17707" x1="0.5" y1="19.0517" x2="23" y2="19.0517" gradientUnits="userSpaceOnUse">
<stop stop-color="#A73A24"/>
<stop offset="1" stop-color="#F75936"/>
</linearGradient>
</defs>
</svg>
