<svg width="32" height="32" viewBox="0 0 32 32" fill="none" xmlns="http://www.w3.org/2000/svg">
<rect width="32" height="32" rx="16" fill="#EAECF0"/>
<path d="M13 16L15 18L19 14M13.2 22H18.8C19.9201 22 20.4802 22 20.908 21.782C21.2843 21.5903 21.5903 21.2843 21.782 20.908C22 20.4802 22 19.9201 22 18.8V13.2C22 12.0799 22 11.5198 21.782 11.092C21.5903 10.7157 21.2843 10.4097 20.908 10.218C20.4802 10 19.9201 10 18.8 10H13.2C12.0799 10 11.5198 10 11.092 10.218C10.7157 10.4097 10.4097 10.7157 10.218 11.092C10 11.5198 10 12.0799 10 13.2V18.8C10 19.9201 10 20.4802 10.218 20.908C10.4097 21.2843 10.7157 21.5903 11.092 21.782C11.5198 22 12.0799 22 13.2 22Z" stroke="#667085" stroke-linecap="round" stroke-linejoin="round"/>
</svg>
