<svg xmlns="http://www.w3.org/2000/svg" width="44" height="32" viewBox="0 0 44 32" fill="none">
<path d="M22 31.625C27.6568 31.625 32.2424 27.1774 32.2424 21.6911C32.2424 16.2048 27.6568 11.7573 22 11.7573C16.3433 11.7573 11.7576 16.2048 11.7576 21.6911C11.7576 27.1774 16.3433 31.625 22 31.625Z" fill="url(#paint0_linear_486_48012)"/>
<path fill-rule="evenodd" clip-rule="evenodd" d="M0.401173 10.1994L5.90055 16.5167C6.10382 16.7486 6.39441 16.8917 6.70733 16.9141C7.02025 16.9366 7.32939 16.8365 7.56561 16.6361C16.4713 8.89153 27.4994 8.89153 36.4285 16.6361C36.6648 16.8365 36.9739 16.9366 37.2868 16.9141C37.5997 16.8917 37.8903 16.7486 38.0936 16.5167L43.5988 10.1994C44.0144 9.72135 43.9542 9.00762 43.464 8.60153C30.5363 -2.36718 13.4578 -2.36718 0.536019 8.60153C0.0458272 9.00762 -0.0144067 9.72135 0.401173 10.1994Z" fill="#2684FF"/>
<defs>
<linearGradient id="paint0_linear_486_48012" x1="22" y1="28.2075" x2="22" y2="10.6087" gradientUnits="userSpaceOnUse">
<stop stop-color="#2684FF"/>
<stop offset="0.82" stop-color="#0052CC"/>
</linearGradient>
</defs>
</svg>