<svg width="32" height="33" viewBox="0 0 32 33" fill="none" xmlns="http://www.w3.org/2000/svg">
<rect y="0.5" width="32" height="32" rx="16" fill="#EAECF0"/>
<path d="M20.6663 22.5L22.6663 20.5M22.6663 20.5L20.6663 18.5M22.6663 20.5H18.6663M15.9997 18.8333H12.9997C12.0693 18.8333 11.6041 18.8333 11.2256 18.9482C10.3733 19.2067 9.70637 19.8736 9.44783 20.7259C9.33301 21.1044 9.33301 21.5696 9.33301 22.5M17.6663 13.5C17.6663 15.1569 16.3232 16.5 14.6663 16.5C13.0095 16.5 11.6663 15.1569 11.6663 13.5C11.6663 11.8431 13.0095 10.5 14.6663 10.5C16.3232 10.5 17.6663 11.8431 17.6663 13.5Z" stroke="#667085" stroke-linecap="round" stroke-linejoin="round"/>
</svg>
