<svg xmlns="http://www.w3.org/2000/svg" width="20" height="20" viewBox="0 0 20 20" fill="none">
<g clip-path="url(#clip0_1283_33470)">
<path d="M15 1.66663L18.3333 4.99996M1.66667 18.3333L2.73034 14.4332C2.79973 14.1787 2.83443 14.0515 2.8877 13.9329C2.93499 13.8275 2.99311 13.7274 3.0611 13.6341C3.13768 13.5289 3.23093 13.4357 3.41743 13.2492L12.0286 4.63803C12.1936 4.47302 12.2761 4.39052 12.3712 4.35961C12.4549 4.33242 12.5451 4.33242 12.6288 4.35961C12.7239 4.39052 12.8064 4.47302 12.9714 4.63803L15.3619 7.02856C15.5269 7.19356 15.6094 7.27607 15.6404 7.3712C15.6675 7.45489 15.6675 7.54503 15.6404 7.62872C15.6094 7.72385 15.5269 7.80636 15.3619 7.97136L6.75076 16.5825C6.56426 16.769 6.47102 16.8623 6.36591 16.9389C6.27258 17.0069 6.17244 17.065 6.0671 17.1123C5.94846 17.1655 5.82124 17.2002 5.56679 17.2696L1.66667 18.3333Z" stroke="white" stroke-width="1.66667" stroke-linecap="round" stroke-linejoin="round"/>
</g>
<defs>
<clipPath id="clip0_1283_33470">
<rect width="20" height="20" fill="white"/>
</clipPath>
</defs>
</svg>