<svg width="28" height="28" viewBox="0 0 28 28" fill="none" xmlns="http://www.w3.org/2000/svg">
<g clip-path="url(#clip0_310_74505)">
<rect width="32" height="32" transform="translate(-2 -2)" fill="#F5F8F8"/>
<path d="M16.6667 9.99967V9.46634C16.6667 8.7196 16.6667 8.34624 16.5213 8.06102C16.3935 7.81014 16.1895 7.60616 15.9387 7.47833C15.6534 7.33301 15.2801 7.33301 14.5333 7.33301H13.4667C12.7199 7.33301 12.3466 7.33301 12.0613 7.47833C11.8105 7.60616 11.6065 7.81014 11.4787 8.06102C11.3333 8.34624 11.3333 8.7196 11.3333 9.46634V9.99967M12.6667 13.6663V16.9997M15.3333 13.6663V16.9997M8 9.99967H20M18.6667 9.99967V17.4663C18.6667 18.5864 18.6667 19.1465 18.4487 19.5743C18.2569 19.9506 17.951 20.2566 17.5746 20.4484C17.1468 20.6663 16.5868 20.6663 15.4667 20.6663H12.5333C11.4132 20.6663 10.8532 20.6663 10.4254 20.4484C10.049 20.2566 9.74307 19.9506 9.55132 19.5743C9.33333 19.1465 9.33333 18.5864 9.33333 17.4663V9.99967" stroke="#DD695C" stroke-width="1.33333" stroke-linecap="round" stroke-linejoin="round"/>
</g>
<defs>
<clipPath id="clip0_310_74505">
<rect width="28" height="28" rx="4" fill="white"/>
</clipPath>
</defs>
</svg>
